<?xml version="1.0" encoding="UTF-8"?> <!-- Generator: Adobe Illustrator 27.8.1, SVG Export Plug-In . SVG Version: 6.00 Build 0) --> <svg xmlns="http://www.w3.org/2000/svg" xmlns:xlink="http://www.w3.org/1999/xlink" id="Layer_1" x="0px" y="0px" viewBox="0 0 154.5 94.9" style="enable-background:new 0 0 154.5 94.9;" xml:space="preserve"> <style type="text/css"> .st0{fill:#50FFFF;} </style> <path class="st0" d="M146.7,47c-2.9-2.9-6.9-4.7-11.3-4.7c-4.4,0-8.4,1.8-11.3,4.7l0,0c-1.9,1.9-3.4,4.3-4.1,7H50.4L67,37.4l0.1,0.1 l0,0l0.1,0.1l0,0l0.1,0l0.1,0.1l0,0l0.1,0.1l0.1,0l0.1,0l0.1,0.1l0,0l0.1,0.1l0.1,0l0,0l0.1,0.1l0,0l0.1,0l0.1,0l0,0l0.1,0.1l0,0 l0.1,0l0.1,0l0,0l0.1,0.1l0,0l0.1,0l0.1,0l0,0l0.1,0l0,0l0.1,0l0.1,0l0,0l0.1,0l0,0l0.1,0l0.1,0h0l0.1,0l0.1,0l0.1,0l0.1,0l0,0 l0.1,0l0.1,0l0,0l0.1,0l0,0l0.1,0l0.1,0l0,0l0.1,0l0,0l0.1,0l0.1,0l0,0l0.1,0l0,0l0.1,0l0.1,0l0,0l0.1,0l0,0l0.1,0l0.1,0h0l0.1,0 l0.1,0l0.1,0l0.1,0h0l0.1,0l0.1,0l0.1,0l0.1,0l0,0l0.1,0l0.1,0l0.1,0l0.1,0l0,0l0.1,0l0.1,0l0,0l0.1,0l0,0l0.1,0l0.1,0l0,0l0.1,0 l0,0l0.1,0l0.1,0l0,0l0.1,0l0.1,0l0.1,0l0.1,0h0l0.1,0l0.1,0h0.1h0.1c4.4,0,8.4-1.8,11.3-4.7l0,0l0,0l0,0c2.9-2.9,4.7-6.9,4.7-11.3 c0-4.4-1.8-8.4-4.7-11.3c-2.9-2.9-6.9-4.7-11.3-4.7c-4.4,0-8.4,1.8-11.3,4.7l0,0c-2.9,2.9-4.7,6.9-4.7,11.3v0.1v0.1l0,0.1l0,0.1v0 l0,0.1l0,0.1l0,0.1l0,0.1l0,0l0,0.1l0,0.1l0,0l0,0.1l0,0l0,0.1l0,0.1l0,0l0,0.1l0,0l0,0.1l0,0.1l0,0l0,0.1l0,0.1l0,0.1l0,0.1l0,0 l0,0.1l0,0.1l0,0.1l0,0.1v0l0,0.1l0,0.1l0,0.1l0,0.1l0,0l0,0.1l0,0.1l0,0l0,0.1l0,0l0,0.1l0,0.1l0,0l0,0.1l0,0l0,0.1l0,0.1l0,0 l0,0.1l0,0l0,0.1l0,0.1l0,0l0,0.1l0,0.1l0,0.1l0,0.1l0,0l0,0.1l0,0.1l0,0.1l0,0.1v0l0,0.1l0,0.1l0,0.1l0,0.1l0,0l0,0.1l0,0.1l0,0 l0,0.1l0,0l0,0.1l0,0.1l0,0l0,0.1l0,0l0,0.1l0,0.1l0,0l0.1,0.1l0,0l0,0.1l0,0.1l0,0l0.1,0.1l0,0l0,0.1l0.1,0.1l0,0l0.1,0.1l0,0.1 l0,0.1l0.1,0.1l0,0l0.1,0.1l0,0.1l0,0l0.1,0.1l0,0l0.1,0.1L38.3,54.1H0v8.5h55.4l24.8,24.6c0.8,0.8,1.9,1.2,3,1.2 c1.1,0,2.2-0.4,3-1.2c1.7-1.7,1.6-4.4,0-6L67.5,62.6H120c0.7,2.7,2.2,5.1,4.1,7c2.9,2.9,6.9,4.7,11.3,4.7c4.4,0,8.4-1.8,11.3-4.7 l0,0l0,0l0,0c2.9-2.9,4.7-6.9,4.7-11.3C151.3,53.9,149.6,49.9,146.7,47z M74.9,15.8c4.3,0,7.7,3.5,7.7,7.7s-3.5,7.7-7.7,7.7 s-7.7-3.5-7.7-7.7S70.6,15.8,74.9,15.8z M135.4,66.2c-4.3,0-7.7-3.5-7.7-7.7s3.5-7.7,7.7-7.7s7.7,3.5,7.7,7.7S139.7,66.2,135.4,66.2 z"></path> </svg> 