<?xml version="1.0" encoding="UTF-8"?> <svg xmlns="http://www.w3.org/2000/svg" id="Layer_1" data-name="Layer 1" viewBox="0 0 1902.33 176.46"> <defs> <style> .cls-1 { fill: #fff; stroke-width: 0px; } </style> </defs> <path class="cls-1" d="M264.49,138.13c0,12.58-4.73,22.16-14.19,28.74-8.2,5.66-18.67,8.48-31.43,8.48-11.32,0-20.91-3.21-28.77-9.62-7.35-5.99-13.56-15.23-18.63-27.73l-27.37-92.55c-.93-2.11-2.07-3.69-3.42-4.75-1.35-1.05-2.79-1.58-4.31-1.58-1.94,0-3.59.84-4.94,2.53-1.35,1.69-2.03,3.92-2.03,6.71v89.64c0,12.66-4.77,22.28-14.29,28.87-8.18,5.66-18.68,8.48-31.49,8.48-10.46,0-19.65-3.67-27.58-11.02-8.52-7.93-14.97-19.63-19.35-35.07L0,2.91h39l38.87,126.36c0,2.03.59,3.84,1.77,5.44,1.69,2.2,3.42,3.29,5.19,3.29,2.45,0,4.13-.8,5.06-2.41.93-1.6,1.39-3.71,1.39-6.33V38.74c0-10.97,4.64-20.09,13.93-27.35,8.78-6.84,19.12-10.26,31.02-10.26,10.38,0,19.45,2.66,27.22,7.98,8.78,5.99,14.77,14.77,17.98,26.33l30.64,93.82c1.43,3.88,2.87,6.46,4.3,7.72,1.01.84,2.24,1.18,3.67,1.01,2.7-.76,4.43-1.62,5.19-2.6.76-.97,1.14-3.02,1.14-6.14V2.91h38.11v135.22Z"></path> <path class="cls-1" d="M437.95,172.57h-40.64l-44.82-132.18c-.25-1.35-1.22-2.03-2.91-2.03-1.77,0-2.96.68-3.55,2.03l-43.93,132.18h-41.15c3.21-10.8,8.23-27.05,15.07-48.74,7.68-24.06,15.19-47.01,22.54-68.88,8.1-23.89,13.08-37.26,14.94-40.13,3.46-4.81,8.42-8.48,14.88-11.02,6.46-2.53,13.48-3.8,21.08-3.8s14.52,1.27,21.02,3.8c6.5,2.53,11.39,6.2,14.69,11.02,2.11,2.79,7.17,16.12,15.19,40.01,5.65,16.8,13.08,39.76,22.28,68.88,5.06,16.29,10.17,32.58,15.32,48.87Z"></path> <path class="cls-1" d="M539.99,37.1h-38.87v135.47h-37.48V37.1h-38.74V.89h115.09v36.21Z"></path> <path class="cls-1" d="M696.23,172.57h-84.07c-20.17,0-36.08-8.77-47.73-26.31-10.47-15.69-15.7-35.05-15.7-58.07s5.32-43.52,15.95-59.97c11.82-18.22,27.64-27.33,47.48-27.33h84.07v36.21h-77.74c-9.29,0-16.59,4.97-21.9,14.92-4.81,8.94-7.22,19.94-7.22,33s2.45,24.99,7.34,34.52c5.4,10.54,12.66,15.81,21.78,15.81h77.74v37.22Z"></path> <path class="cls-1" d="M856.77,172.57h-38.11v-67.74h-68.62v67.74h-38.11V.89h38.11v66.85h68.62V.89h38.11v171.68Z"></path> <path class="cls-1" d="M981.99,37.1h-38.87v135.47h-37.48V37.1h-38.74V.89h115.09v36.21Z"></path> <path class="cls-1" d="M1096.83,172.57h-56.09c-20.17,0-36.08-8.77-47.73-26.31-10.47-15.69-15.7-35.05-15.7-58.07s5.32-43.52,15.95-59.97c11.82-18.22,27.64-27.33,47.48-27.33h56.09c19.83,0,35.66,9.11,47.48,27.33,10.64,16.45,15.95,36.44,15.95,59.97s-5.19,42.47-15.57,58.07c-11.65,17.54-27.6,26.31-47.86,26.31ZM1090.5,135.35c9.03,0,16.29-5.27,21.78-15.81,4.98-9.52,7.47-21.03,7.47-34.52s-2.41-24.07-7.22-33c-5.32-9.95-12.66-14.92-22.03-14.92h-43.43c-9.29,0-16.59,4.97-21.9,14.92-4.81,8.94-7.22,19.94-7.22,33s2.45,24.99,7.34,34.52c5.4,10.54,12.66,15.81,21.78,15.81h43.43Z"></path> <path class="cls-1" d="M1412.22,138.13c0,12.58-4.73,22.16-14.19,28.74-8.2,5.66-18.67,8.48-31.43,8.48-11.32,0-20.91-3.21-28.77-9.62-7.35-5.99-13.56-15.23-18.63-27.73l-27.37-92.55c-.93-2.11-2.07-3.69-3.42-4.75-1.35-1.05-2.79-1.58-4.31-1.58-1.94,0-3.59.84-4.94,2.53-1.35,1.69-2.03,3.92-2.03,6.71v89.64c0,12.66-4.77,22.28-14.29,28.87-8.18,5.66-18.68,8.48-31.49,8.48-10.46,0-19.65-3.67-27.58-11.02-8.52-7.93-14.97-19.63-19.35-35.07l-36.68-126.36h39l38.87,126.36c0,2.03.59,3.84,1.77,5.44,1.69,2.2,3.42,3.29,5.19,3.29,2.45,0,4.13-.8,5.06-2.41.93-1.6,1.39-3.71,1.39-6.33V38.74c0-10.97,4.64-20.09,13.93-27.35,8.78-6.84,19.12-10.26,31.02-10.26,10.38,0,19.45,2.66,27.22,7.98,8.78,5.99,14.77,14.77,17.98,26.33l30.64,93.82c1.43,3.88,2.87,6.46,4.3,7.72,1.01.84,2.24,1.18,3.67,1.01,2.7-.76,4.43-1.62,5.19-2.6.76-.97,1.14-3.02,1.14-6.14V2.91h38.11v135.22Z"></path> <path class="cls-1" d="M1571.49,171.68h-97.74c-14.6,0-26.21-5.4-34.82-16.21-7.77-9.79-11.65-21.73-11.65-35.83,0-6.16.82-12.09,2.47-17.79,1.65-5.7,4.12-10.91,7.41-15.64-3.12-4.47-5.55-9.65-7.28-15.55-1.73-5.9-2.59-11.8-2.59-17.7,0-14.07,3.88-26,11.65-35.78,8.61-10.87,20.21-16.31,34.82-16.31h97.74v36.21h-91.41c-4.14,0-7.41,1.56-9.81,4.67-2.41,3.11-3.61,6.77-3.61,10.97s1.16,7.65,3.48,10.59c2.32,2.94,5.63,4.41,9.94,4.41h91.41v37.1h-96.6c-2.62,1.18-4.64,3.1-6.08,5.76-1.44,2.66-2.15,5.63-2.15,8.93,0,4.14,1.16,7.68,3.48,10.64,2.32,2.96,5.63,4.43,9.94,4.43h91.41v37.1Z"></path> <path class="cls-1" d="M1734.06,176.46l-108.13-46.56v42.67h-37.48v-56.85c0-13.67,3.42-24.77,10.26-33.3,7.85-9.79,19.41-14.69,34.69-14.69h46.59c4.3,0,7.68-1.56,10.13-4.66,2.19-2.77,3.29-6.22,3.29-10.34s-1.1-7.77-3.29-10.72c-2.45-3.28-5.82-4.92-10.13-4.92h-91.54V.89h97.87c14.6,0,26.16,5.4,34.69,16.19,7.76,9.78,11.65,21.71,11.65,35.79s-3.84,26.09-11.52,35.79c-8.53,10.79-20.13,16.19-34.82,16.19h-23.68l71.41,31.01v40.62Z"></path> <path class="cls-1" d="M1893.97,37.1h-91.41c-4.14,0-7.41,1.56-9.81,4.67-2.41,3.11-3.61,6.77-3.61,10.97s1.16,7.65,3.48,10.59c2.32,2.94,5.63,4.41,9.94,4.41h53.81c14.52,0,26,5.44,34.44,16.33,7.68,9.88,11.52,21.9,11.52,36.08s-3.8,26.29-11.39,36.08c-8.44,10.89-19.96,16.33-34.57,16.33h-98v-36.46h91.79c3.88,0,7.05-1.69,9.5-5.06,2.19-3.04,3.29-6.71,3.29-11.01s-1.1-7.7-3.29-10.7c-2.2-3-5.36-4.49-9.5-4.49h-53.94c-14.6,0-26.17-5.4-34.69-16.19-7.77-9.78-11.65-21.71-11.65-35.79s3.84-25.97,11.52-35.66c8.61-10.88,20.21-16.31,34.82-16.31h97.74v36.21Z"></path> </svg> 