<?xml version="1.0" encoding="UTF-8"?> <svg xmlns="http://www.w3.org/2000/svg" width="133" height="138" viewBox="0 0 133 138" fill="none"> <g clip-path="url(#clip0_64_305)"> <path d="M39.5492 72.9511L38.0017 70.765L31.416 73.6915C32.0755 74.2541 32.4975 75.0848 32.4975 76.0147V78.8538L63.4241 92.8949V92.8511C63.4241 91.9125 63.852 91.073 64.5231 90.5105L32.6265 76.0293L39.5521 72.954L39.5492 72.9511Z" fill="white"></path> <path d="M69.5789 92.8949L100.505 78.8538V76.0147C100.505 75.0761 100.933 74.2366 101.605 73.6741L95.3471 70.832L93.8025 73.0153L100.409 76.0147L68.4827 90.5105C69.1539 91.0731 69.5818 91.9126 69.5818 92.8512V92.8949H69.5789Z" fill="white"></path> <path d="M63.424 133.849L30.739 119.009V76.0118C30.739 75.2889 30.1469 74.7001 29.4201 74.7001C29.1504 74.7001 28.9043 74.7817 28.6932 74.9187C28.6786 74.9274 28.6669 74.9391 28.6551 74.9478C28.6053 74.9828 28.5584 75.0236 28.5115 75.0644C28.4969 75.079 28.4793 75.0936 28.4646 75.1082C28.4207 75.1519 28.3826 75.2014 28.3445 75.251C28.3357 75.2627 28.3269 75.2743 28.3181 75.286C28.2771 75.3472 28.2419 75.4113 28.2126 75.4813C28.2038 75.5017 28.195 75.525 28.1891 75.5454C28.1686 75.5979 28.151 75.6503 28.1393 75.7057C28.1334 75.729 28.1276 75.7524 28.1246 75.7757C28.11 75.8515 28.1012 75.9302 28.1012 76.0089V119.849C28.1012 120.362 28.4031 120.828 28.872 121.041L63.427 136.729C63.427 136.715 63.427 136.7 63.427 136.682V133.843L63.424 133.849Z" fill="white"></path> <path d="M104.861 75.7086C104.846 75.6533 104.831 75.6008 104.811 75.5483C104.802 75.5279 104.796 75.5075 104.787 75.4871C104.758 75.4201 104.723 75.3559 104.682 75.2947C104.673 75.2801 104.661 75.2656 104.65 75.251C104.614 75.2014 104.576 75.1577 104.535 75.114C104.521 75.0994 104.506 75.0819 104.488 75.0674C104.442 75.0236 104.392 74.9828 104.339 74.9449C104.327 74.9391 104.318 74.9304 104.31 74.9216C104.102 74.7817 103.85 74.7001 103.58 74.7001C102.853 74.7001 102.261 75.2889 102.261 76.0118V119.009L69.5759 133.849V136.688C69.5759 136.703 69.5759 136.717 69.5759 136.735L104.131 121.047C104.6 120.834 104.902 120.365 104.902 119.855V76.0147C104.902 75.936 104.893 75.8573 104.878 75.7815C104.872 75.7582 104.869 75.7349 104.864 75.7115L104.861 75.7086Z" fill="white"></path> <path d="M66.5014 91.5394C65.7746 91.5394 65.1826 92.1282 65.1826 92.8511V136.691C65.1826 137.228 65.5079 137.688 65.971 137.889C66.0354 137.918 66.1029 137.939 66.1732 137.956C66.1908 137.962 66.2084 137.968 66.2289 137.974C66.3168 137.991 66.4106 138.003 66.5044 138.003C66.5982 138.003 66.692 137.991 66.7799 137.974C66.7945 137.971 66.8092 137.965 66.8238 137.959C66.8942 137.942 66.9675 137.918 67.0349 137.889C67.4979 137.685 67.8233 137.225 67.8233 136.691V92.8511C67.8233 92.1282 67.2312 91.5394 66.5044 91.5394H66.5014Z" fill="white"></path> <path d="M47.5798 49.9176L62.2547 58.9655C63.5413 59.7583 65.0067 60.1781 66.4986 60.1781C67.9904 60.1781 69.4587 59.7583 70.7425 58.9655L85.4173 49.9176C87.8031 48.4456 89.2275 45.9009 89.2275 43.1084V24.1616C89.2275 21.3691 87.8031 18.8244 85.4173 17.3524L70.7425 8.30163C69.4324 7.49421 67.9669 7.09195 66.4986 7.09195C65.0302 7.09195 63.5648 7.49421 62.2547 8.30163L47.5798 17.3495C45.1941 18.8215 43.7697 21.3662 43.7697 24.1587V43.1055C43.7697 45.898 45.1941 48.4427 47.5798 49.9147V49.9176ZM46.4074 24.1616C46.4074 22.2844 47.3658 20.5734 48.969 19.5823L63.6439 10.5344C64.5056 10.001 65.4933 9.72119 66.4986 9.72119C67.5038 9.72119 68.4886 10.001 69.3532 10.5344L84.0281 19.5823C85.6313 20.5734 86.5897 22.2844 86.5897 24.1616V43.1084C86.5897 44.9856 85.6313 46.6967 84.0281 47.6877L69.3532 56.7356C68.474 57.2777 67.4863 57.5488 66.4986 57.5488C65.5109 57.5488 64.5261 57.2777 63.6439 56.7356L48.969 47.6877C47.3658 46.6996 46.4074 44.9856 46.4074 43.1084V24.1616Z" fill="white"></path> <path d="M66.5015 44.8778C72.7647 44.8778 77.8615 39.8088 77.8615 33.5796C77.8615 27.3505 72.7647 22.2815 66.5015 22.2815C60.2382 22.2815 55.1414 27.3505 55.1414 33.5796C55.1414 39.8088 60.2382 44.8778 66.5015 44.8778ZM66.5015 24.902C71.311 24.902 75.2237 28.7934 75.2237 33.5767C75.2237 38.3601 71.311 42.2515 66.5015 42.2515C61.6919 42.2515 57.7792 38.3601 57.7792 33.5767C57.7792 28.7934 61.6919 24.902 66.5015 24.902Z" fill="white"></path> <path d="M39.1213 69.3104L39.6371 70.0392L41.1846 72.2253L41.7004 72.9541L42.2163 73.6828L44.4027 76.7726C44.6489 77.1195 45.0533 77.3293 45.4842 77.3293C45.7568 77.3293 46.0176 77.2477 46.2433 77.0903C46.8382 76.6735 46.9819 75.8544 46.5627 75.2627L44.1448 71.8493L43.4648 70.8903L41.8821 68.6546L41.2022 67.6956L11.7586 26.1204C11.5564 25.8347 11.2516 25.6424 10.9058 25.5841C10.8296 25.5724 10.7534 25.5637 10.6772 25.5637C10.4075 25.5637 10.1437 25.6453 9.92099 25.8027C9.63377 26.0038 9.44033 26.307 9.38171 26.6509C9.32016 26.9949 9.3993 27.3447 9.60153 27.6303L38.6054 68.5788L39.1213 69.3075V69.3104Z" fill="white"></path> <path d="M6.38049 18.5271L3.76323 14.831C3.50531 14.4696 3.09792 14.2743 2.68467 14.2743C2.42089 14.2743 2.15711 14.353 1.92557 14.5133C1.63834 14.7144 1.44491 15.0176 1.38629 15.3615C1.32474 15.7055 1.40387 16.0553 1.6061 16.3409L4.22337 20.037C4.46957 20.3868 4.87403 20.5938 5.30486 20.5938C5.57743 20.5938 5.83828 20.5121 6.06103 20.3547C6.34825 20.1536 6.54169 19.8505 6.60031 19.5065C6.66186 19.1625 6.58272 18.8128 6.38049 18.5271Z" fill="white"></path> <path d="M131.79 16.3438C131.992 16.0582 132.071 15.7084 132.012 15.3644C131.951 15.0205 131.76 14.7173 131.473 14.5162C131.247 14.3588 130.986 14.2772 130.717 14.2772C130.641 14.2772 130.564 14.283 130.488 14.2976C130.142 14.3588 129.838 14.5482 129.635 14.8339L127.49 17.8625C127.288 18.1481 127.209 18.4979 127.267 18.8419C127.329 19.1858 127.519 19.489 127.806 19.6901C128.029 19.8475 128.293 19.9291 128.566 19.9291C128.993 19.9291 129.398 19.7222 129.647 19.3724L131.792 16.3438H131.79Z" fill="white"></path> <path d="M122.346 27.3971C122.115 27.2368 121.851 27.1581 121.587 27.1581C121.171 27.1581 120.764 27.3505 120.506 27.7149L92.0469 67.8967L91.197 69.0977L90.2444 70.4414L89.3974 71.6395L86.8329 75.2598C86.6307 75.5454 86.5515 75.8952 86.6131 76.2392C86.6746 76.5831 86.8651 76.8863 87.1524 77.0874C87.3751 77.2448 87.6389 77.3264 87.9085 77.3264C88.3394 77.3264 88.7409 77.1195 88.9871 76.7697L91.1384 73.7294L91.6542 73.0007L92.17 72.272L93.7146 70.0887L94.2304 69.36L94.7463 68.6313L122.663 29.216C123.082 28.6243 122.938 27.8052 122.343 27.3884L122.346 27.3971Z" fill="white"></path> <path d="M7.71403 58.4204C6.98718 58.4204 6.39514 59.0092 6.39514 59.7321V60.4608C6.39514 61.1837 6.98718 61.7725 7.71403 61.7725C8.44089 61.7725 9.03293 61.1837 9.03293 60.4608V59.7321C9.03293 59.0092 8.44089 58.4204 7.71403 58.4204Z" fill="white"></path> <path d="M7.71403 70.4123C6.98718 70.4123 6.39514 71.0011 6.39514 71.724V72.4527C6.39514 73.1756 6.98718 73.7644 7.71403 73.7644C8.44089 73.7644 9.03293 73.1756 9.03293 72.4527V71.724C9.03293 71.0011 8.44089 70.4123 7.71403 70.4123Z" fill="white"></path> <path d="M2.05161 64.7807H1.31889C0.592036 64.7807 0 65.3695 0 66.0924C0 66.8153 0.592036 67.4041 1.31889 67.4041H2.05161C2.77847 67.4041 3.3705 66.8153 3.3705 66.0924C3.3705 65.3695 2.77847 64.7807 2.05161 64.7807Z" fill="white"></path> <path d="M14.1092 64.7807H13.3765C12.6497 64.7807 12.0576 65.3695 12.0576 66.0924C12.0576 66.8153 12.6497 67.4041 13.3765 67.4041H14.1092C14.8361 67.4041 15.4281 66.8153 15.4281 66.0924C15.4281 65.3695 14.8361 64.7807 14.1092 64.7807Z" fill="white"></path> <path d="M125.286 117.447C124.559 117.447 123.967 118.036 123.967 118.759V119.488C123.967 120.21 124.559 120.799 125.286 120.799C126.013 120.799 126.605 120.21 126.605 119.488V118.759C126.605 118.036 126.013 117.447 125.286 117.447Z" fill="white"></path> <path d="M125.286 129.442C124.559 129.442 123.967 130.031 123.967 130.754V131.482C123.967 132.205 124.559 132.794 125.286 132.794C126.013 132.794 126.605 132.205 126.605 131.482V130.754C126.605 130.031 126.013 129.442 125.286 129.442Z" fill="white"></path> <path d="M119.624 123.807H118.891C118.164 123.807 117.572 124.396 117.572 125.119C117.572 125.842 118.164 126.431 118.891 126.431H119.624C120.35 126.431 120.942 125.842 120.942 125.119C120.942 124.396 120.35 123.807 119.624 123.807Z" fill="white"></path> <path d="M131.681 123.807H130.948C130.222 123.807 129.63 124.396 129.63 125.119C129.63 125.842 130.222 126.431 130.948 126.431H131.681C132.408 126.431 133 125.842 133 125.119C133 124.396 132.408 123.807 131.681 123.807Z" fill="white"></path> <path d="M100.464 3.35213C101.191 3.35213 101.783 2.76332 101.783 2.04043V1.3117C101.783 0.588809 101.191 0 100.464 0C99.7375 0 99.1455 0.588809 99.1455 1.3117V2.04043C99.1455 2.76332 99.7375 3.35213 100.464 3.35213Z" fill="white"></path> <path d="M100.464 15.344C101.191 15.344 101.783 14.7552 101.783 14.0323V13.3036C101.783 12.5807 101.191 11.9919 100.464 11.9919C99.7375 11.9919 99.1455 12.5807 99.1455 13.3036V14.0323C99.1455 14.7552 99.7375 15.344 100.464 15.344Z" fill="white"></path> <path d="M94.0693 8.98373H94.802C95.5288 8.98373 96.1209 8.39492 96.1209 7.67203C96.1209 6.94913 95.5288 6.36032 94.802 6.36032H94.0693C93.3424 6.36032 92.7504 6.94913 92.7504 7.67203C92.7504 8.39492 93.3424 8.98373 94.0693 8.98373Z" fill="white"></path> <path d="M106.127 8.98373H106.86C107.586 8.98373 108.178 8.39492 108.178 7.67203C108.178 6.94913 107.586 6.36032 106.86 6.36032H106.127C105.4 6.36032 104.808 6.94913 104.808 7.67203C104.808 8.39492 105.4 8.98373 106.127 8.98373Z" fill="white"></path> <path d="M38.5644 112.865C38.3856 112.783 38.198 112.745 38.0134 112.745C37.5151 112.745 37.0345 113.028 36.8147 113.506C36.5098 114.162 36.8 114.943 37.4594 115.246L57.404 124.399C57.8085 124.586 58.2921 124.551 58.6672 124.312C59.0482 124.07 59.2739 123.656 59.2739 123.207V98.3982C59.2739 97.891 58.975 97.4246 58.5148 97.2089L38.5703 87.9337C37.9108 87.6276 37.1253 87.9104 36.8176 88.5662C36.6681 88.884 36.6535 89.2396 36.7736 89.569C36.8938 89.8983 37.1371 90.1607 37.4536 90.3093L56.6391 99.2289V121.152L38.5673 112.856L38.5644 112.865Z" fill="white"></path> <path d="M95.523 90.3152C96.1824 90.0091 96.4667 89.2279 96.159 88.5721C96.0095 88.2544 95.7457 88.0154 95.4145 87.8958C95.268 87.8434 95.1156 87.8171 94.9632 87.8171C94.7727 87.8171 94.5822 87.858 94.4063 87.9425L74.4617 97.2177C73.9987 97.4334 73.7026 97.8998 73.7026 98.407V123.216C73.7026 123.665 73.9312 124.078 74.3123 124.32C74.6874 124.559 75.171 124.591 75.5755 124.408L95.52 115.255C96.1795 114.952 96.4696 114.171 96.1648 113.515C95.86 112.859 95.0775 112.57 94.4151 112.874L76.3434 121.169V99.2465L95.5288 90.3269L95.523 90.3152Z" fill="white"></path> </g> <defs> <clipPath id="clip0_64_305"> <rect width="133" height="138" fill="white"></rect> </clipPath> </defs> </svg> 