<?xml version="1.0" encoding="UTF-8"?> <svg xmlns="http://www.w3.org/2000/svg" width="181" height="173" viewBox="0 0 181 173" fill="none"> <g clip-path="url(#clip0_64_197)"> <path d="M16.6153 67.7397L16.5961 67.8123C16.5961 67.8123 16.5807 67.885 16.5731 67.9385L16.5654 67.9844C16.5616 68.0302 16.5539 68.0914 16.5539 68.1526V106.289C16.5539 106.813 16.8609 107.291 17.3407 107.505L45.9497 120.511C45.9728 120.523 46.0035 120.53 46.0342 120.542L46.0956 120.565C46.0956 120.565 46.1416 120.576 46.1762 120.584L46.2337 120.599C46.2606 120.603 46.2913 120.607 46.322 120.611L46.3796 120.618C46.4487 120.626 46.5293 120.626 46.6022 120.618H46.6252C46.679 120.607 46.7173 120.603 46.7481 120.599L46.7941 120.588C46.8287 120.58 46.8594 120.573 46.8901 120.565L46.9361 120.55C46.9707 120.538 47.0014 120.527 47.0321 120.511L47.0973 120.485L59.0721 115.04V127.688C59.0721 128.211 59.3792 128.689 59.8589 128.903L88.4449 141.902C88.4948 141.925 88.5256 141.937 88.5601 141.948L88.6138 141.967C88.6138 141.967 88.656 141.979 88.6944 141.986L88.7482 141.998C88.7827 142.005 88.8096 142.009 88.8364 142.009L88.8978 142.017C88.9708 142.021 89.0475 142.021 89.1205 142.017H89.1435C89.1972 142.005 89.2356 142.002 89.2663 141.998L89.297 141.99C89.3507 141.979 89.3853 141.967 89.4198 141.96C89.4812 141.937 89.5158 141.925 89.5465 141.91L89.6194 141.879L118.152 128.903C118.628 128.685 118.938 128.207 118.938 127.688V114.861L131.359 120.508C131.405 120.527 131.435 120.538 131.466 120.55L131.527 120.573C131.527 120.573 131.57 120.584 131.608 120.592L131.666 120.607C131.692 120.611 131.723 120.615 131.754 120.618L131.811 120.626C131.88 120.634 131.961 120.63 132.034 120.626H132.061C132.111 120.615 132.145 120.611 132.176 120.607L132.214 120.595C132.253 120.588 132.283 120.58 132.314 120.569L132.36 120.553C132.395 120.542 132.426 120.53 132.452 120.519L132.525 120.488L153.85 110.789C154.176 110.64 154.425 110.376 154.552 110.04C154.679 109.703 154.663 109.34 154.514 109.015C154.364 108.69 154.099 108.442 153.761 108.315C153.424 108.189 153.063 108.204 152.737 108.35L133.258 117.208V82.0155L159.158 70.2362V85.9037C159.158 86.6416 159.76 87.2418 160.501 87.2418C161.242 87.2418 161.844 86.6416 161.844 85.9037V68.1564C161.844 68.0952 161.837 68.0379 161.829 67.9805L161.818 67.9194C161.814 67.8888 161.802 67.8391 161.787 67.7932L161.771 67.7435C161.756 67.6976 161.741 67.6556 161.722 67.6135C161.683 67.537 161.66 67.495 161.633 67.4529L161.61 67.4147C161.58 67.3688 161.549 67.3306 161.518 67.2924L161.491 67.2618C161.464 67.2312 161.43 67.1968 161.391 67.1624L161.361 67.1318C161.326 67.1012 161.288 67.0706 161.246 67.0439L161.2 67.0171C161.165 66.9942 161.119 66.9712 161.073 66.9483L160.992 66.91L132.472 53.9417C132.115 53.7812 131.712 53.7812 131.359 53.9417L118.938 59.5886V46.2609C118.938 46.1997 118.931 46.1424 118.923 46.085V46.0545C118.908 45.9933 118.896 45.9436 118.885 45.8939L118.877 45.8595C118.858 45.8021 118.843 45.7601 118.823 45.7142C118.789 45.6454 118.766 45.6033 118.739 45.5613L118.712 45.5192C118.693 45.4886 118.666 45.4504 118.635 45.4122L118.597 45.3701C118.57 45.3395 118.535 45.3051 118.501 45.2745L119.495 44.1084L118.466 45.2401C118.436 45.2134 118.393 45.1828 118.351 45.1522L118.317 45.1331C118.275 45.1063 118.228 45.0834 118.182 45.0604L118.102 45.0184L100.266 36.7908C99.5946 36.4812 98.7924 36.7717 98.4815 37.4446C98.1706 38.1137 98.4623 38.9127 99.1378 39.2224L114.387 46.2571L89.0168 57.7955L63.6663 46.2686L79.1453 39.23C79.4715 39.0809 79.721 38.8171 79.8476 38.4807C79.9743 38.1442 79.959 37.781 79.8093 37.4561C79.6596 37.1311 79.3948 36.8826 79.057 36.7564C78.7193 36.6303 78.3546 36.6456 78.0322 36.7908L59.9242 45.026C59.9242 45.026 59.8896 45.0451 59.8704 45.0528C59.809 45.0795 59.763 45.1063 59.7208 45.1331L59.6824 45.156C59.6402 45.1828 59.6018 45.2172 59.5634 45.2478L59.5327 45.2745C59.4982 45.3051 59.4636 45.3395 59.4329 45.3739L59.3945 45.416C59.3753 45.4389 59.3485 45.4772 59.3178 45.5154L59.2986 45.546C59.264 45.5995 59.241 45.6416 59.2218 45.6874L59.1988 45.7371C59.1873 45.7639 59.1681 45.806 59.1527 45.8518L59.1451 45.8824C59.1297 45.9436 59.1182 45.9933 59.1105 46.043L59.1028 46.0889C59.0952 46.1462 59.0875 46.2036 59.0875 46.2609V59.4089L47.0628 53.9417C46.7058 53.7812 46.3028 53.7812 45.9497 53.9417L17.4136 66.9177C17.4136 66.9177 17.3791 66.9368 17.3599 66.9445C17.2985 66.9712 17.2562 66.998 17.2102 67.0247L17.1526 67.0591C17.1526 67.0591 17.0912 67.105 17.049 67.1394L17.0183 67.17C16.9837 67.2006 16.9492 67.235 16.9185 67.2694L16.8801 67.3115C16.8609 67.3344 16.8302 67.3765 16.7995 67.4223L16.7765 67.4568C16.7573 67.4912 16.7304 67.537 16.7074 67.5829L15.3027 66.9597L16.6882 67.6173C16.6729 67.6517 16.6537 67.6976 16.6422 67.7397H16.6153ZM59.8589 88.3238C59.7822 88.362 59.7361 88.385 59.6901 88.4117L59.6478 88.4347C59.6056 88.4614 59.5672 88.492 59.5289 88.5264L59.4982 88.557C59.4636 88.5876 59.4329 88.622 59.3984 88.6564L59.3523 88.7061C59.3523 88.7061 59.3101 88.7635 59.2794 88.8055L59.2487 88.8552C59.2333 88.882 59.2065 88.9279 59.1834 88.9738L59.1642 89.012C59.1489 89.0464 59.1335 89.0885 59.1143 89.1343L59.1028 89.1726C59.0875 89.2261 59.076 89.2758 59.0683 89.3293L59.0606 89.3752C59.0529 89.4325 59.0453 89.4899 59.0453 89.5472V112.096L47.8074 117.208V82.0155L73.7067 70.2362V82.0232L59.882 88.3085C59.882 88.3085 59.8551 88.3238 59.8436 88.3276L59.8589 88.3238ZM87.6466 138.599L61.7473 126.82V91.6232L87.6466 103.403V138.599ZM116.233 126.82L90.3333 138.599V103.403L116.233 91.6232V126.82ZM130.553 117.2L118.919 111.909V89.5434C118.919 89.4822 118.912 89.4249 118.904 89.3675L118.892 89.3064C118.889 89.272 118.877 89.2223 118.862 89.1726L118.85 89.1343C118.835 89.0846 118.816 89.0388 118.796 88.9967C118.762 88.9241 118.739 88.882 118.712 88.8438L118.685 88.8017C118.658 88.7635 118.635 88.7291 118.605 88.6947L118.559 88.645C118.539 88.622 118.505 88.5876 118.47 88.557L118.436 88.5264C118.401 88.4959 118.363 88.4653 118.321 88.4385L118.286 88.4194C118.236 88.3888 118.19 88.362 118.144 88.3429L118.063 88.3047L104.649 82.2067V70.2401L130.549 82.0193V117.216L130.553 117.2ZM131.896 56.618L157.246 68.1449L131.896 79.6719L106.545 68.1449L131.896 56.618ZM90.3333 60.1086L116.233 48.3293V60.8006L102.803 66.91C102.78 66.9215 102.757 66.933 102.734 66.9445C102.692 66.9636 102.646 66.9903 102.6 67.0171L102.561 67.04C102.519 67.0668 102.481 67.0974 102.442 67.1318L102.416 67.1585C102.381 67.1891 102.346 67.2235 102.316 67.2618L102.277 67.3038C102.262 67.3229 102.231 67.3612 102.204 67.4032L102.185 67.4338C102.151 67.4873 102.128 67.5294 102.105 67.5753L102.089 67.6097C102.074 67.6479 102.055 67.69 102.039 67.7397L102.032 67.7703C102.013 67.8314 102.005 67.8811 101.997 67.9308L101.99 67.9767C101.982 68.0341 101.974 68.0914 101.974 68.1488V80.9756L90.341 75.6843V60.1086H90.3333ZM114.34 89.5434L88.99 101.07L63.6394 89.5434L88.99 78.0164L114.34 89.5434ZM61.7473 48.3293L87.6466 60.1086V75.6843L76.4087 80.7959V68.1488C76.4087 68.0876 76.4011 68.0302 76.3934 67.9729L76.3819 67.9117C76.378 67.8811 76.3665 67.8276 76.3512 67.7779L76.3396 67.7397C76.3243 67.69 76.3051 67.6441 76.2859 67.602C76.2514 67.5294 76.2283 67.4873 76.2015 67.4491L76.1784 67.4109C76.1477 67.365 76.117 67.3229 76.0863 67.2885C76.0288 67.2274 75.9942 67.193 75.9597 67.1624L75.929 67.1318C75.8944 67.1012 75.856 67.0744 75.8138 67.0439L75.7754 67.0209C75.7294 66.9903 75.6833 66.9674 75.6373 66.9445L75.5567 66.9062L61.7434 60.6247V48.3369L61.7473 48.3293ZM46.4794 56.618L71.8299 68.1449L46.4794 79.6719L21.1289 68.1449L46.4794 56.618ZM19.2367 70.2286L45.1361 82.0079V117.204L19.2367 105.425V70.2286Z" fill="white"></path> <path d="M88.9899 36.2555C90.6556 36.2555 92.0066 34.9059 92.0066 33.2505C92.0066 31.595 90.6518 30.2454 88.9899 30.2454C87.328 30.2454 85.9693 31.595 85.9693 33.2505C85.9693 34.9059 87.3241 36.2555 88.9899 36.2555Z" fill="white"></path> <path d="M88.9899 21.1348C90.6556 21.1348 92.0066 19.7852 92.0066 18.1298C92.0066 16.4744 90.6518 15.1248 88.9899 15.1248C87.328 15.1248 85.9693 16.4744 85.9693 18.1298C85.9693 19.7852 87.3241 21.1348 88.9899 21.1348Z" fill="white"></path> <path d="M88.9899 6.01417C90.6556 6.01417 92.0066 4.66457 92.0066 3.00913C92.0066 1.35368 90.6518 0.00408936 88.9899 0.00408936C87.328 0.00408936 85.9693 1.35368 85.9693 3.00913C85.9693 4.66457 87.3241 6.01417 88.9899 6.01417Z" fill="white"></path> <path d="M179.404 107.008C178.958 106.771 178.475 106.652 177.987 106.652C177.692 106.652 177.396 106.695 177.105 106.782C176.333 107.016 175.7 107.536 175.32 108.243C174.94 108.95 174.859 109.765 175.097 110.533C175.331 111.302 175.853 111.932 176.563 112.311C178.033 113.091 179.864 112.536 180.647 111.072C181.027 110.365 181.108 109.55 180.87 108.782C180.636 108.014 180.114 107.383 179.404 107.004V107.008Z" fill="white"></path> <path d="M166.009 99.893C165.564 99.656 165.08 99.5375 164.592 99.5375C164.297 99.5375 164.001 99.5795 163.71 99.6674C162.938 99.9007 162.305 100.421 161.925 101.128C161.142 102.592 161.699 104.416 163.169 105.196C164.639 105.976 166.469 105.418 167.252 103.957C168.035 102.493 167.479 100.669 166.009 99.8892V99.893Z" fill="white"></path> <path d="M152.61 92.7738C151.14 91.9939 149.309 92.5521 148.526 94.0126C147.743 95.4769 148.3 97.3005 149.77 98.0805C151.236 98.8604 153.07 98.306 153.853 96.8417C154.636 95.3775 154.08 93.5538 152.61 92.7738Z" fill="white"></path> <path d="M17.2944 56.8209C18.0658 56.5877 18.6991 56.0677 19.0791 55.3604C19.459 54.6531 19.5396 53.8388 19.3017 53.0703C19.0675 52.3019 18.5456 51.671 17.8355 51.2925C17.3826 51.0517 16.899 50.9408 16.4193 50.9408C15.3408 50.9408 14.293 51.5181 13.7518 52.5312C12.9688 53.9955 13.5254 55.8192 14.9953 56.5991C15.7054 56.9776 16.5229 57.0579 17.2944 56.8209Z" fill="white"></path> <path d="M4.44066 44.1773C3.99544 43.9403 3.51184 43.8218 3.02441 43.8218C2.72887 43.8218 2.43334 43.8638 2.14165 43.9518C1.37019 44.185 0.736911 44.7049 0.356941 45.4122C-0.0230287 46.1195 -0.103628 46.9339 0.134333 47.7023C0.368455 48.4708 0.890434 49.1016 1.60048 49.4801C3.06663 50.2601 4.90123 49.7057 5.6842 48.2414C6.06417 47.5341 6.14477 46.7198 5.9068 45.9513C5.67268 45.1828 5.1507 44.552 4.44066 44.1735V44.1773Z" fill="white"></path> <path d="M88.9512 166.986C87.2855 166.986 85.9345 168.336 85.9345 169.991C85.9345 171.647 87.2894 172.996 88.9512 172.996C90.6131 172.996 91.9718 171.647 91.9718 169.991C91.9718 168.336 90.617 166.986 88.9512 166.986Z" fill="white"></path> <path d="M88.9512 151.866C87.2855 151.866 85.9345 153.215 85.9345 154.871C85.9345 156.526 87.2894 157.876 88.9512 157.876C90.6131 157.876 91.9718 156.526 91.9718 154.871C91.9718 153.215 90.617 151.866 88.9512 151.866Z" fill="white"></path> </g> <defs> <clipPath id="clip0_64_197"> <rect width="181" height="173" fill="white"></rect> </clipPath> </defs> </svg> 