<?xml version="1.0" encoding="UTF-8"?> <!-- Generator: Adobe Illustrator 27.8.1, SVG Export Plug-In . SVG Version: 6.00 Build 0) --> <svg xmlns="http://www.w3.org/2000/svg" xmlns:xlink="http://www.w3.org/1999/xlink" x="0px" y="0px" viewBox="0 0 1000 1000" style="enable-background:new 0 0 1000 1000;" xml:space="preserve"> <style type="text/css"> .st0{fill:#2C0735;} </style> <g id="Layer_2"> </g> <g id="Capa_1"> <g> <path class="st0" d="M130.7,694.5c-1.2,1.2-1.8,1.7-3,2.9c-0.8,14.2-1.7,28.4-2.5,42.6c1,1.3,1.6,1.9,2.6,3.2 c13,0.8,26.1,1.6,39.1,2.2c1.2-1.2,1.8-1.7,3-2.9c0.7-14.2,1.5-28.4,2.2-42.6c-1-1.3-1.6-1.9-2.6-3.2 C156.6,696,143.6,695.3,130.7,694.5z"></path> <path class="st0" d="M772.7,699.3c-12.6,0.6-25.1,1.1-37.7,1.5c-1,1.3-1.5,1.9-2.6,3.1c0.5,14.2,1.1,28.4,1.6,42.6 c1.1,1.2,1.7,1.8,2.8,2.9c12.6-0.3,25.3-0.8,38-1.4c1-1.3,1.5-1.9,2.6-3.2c-0.6-14.2-1.3-28.4-1.9-42.6 C774.4,701,773.8,700.4,772.7,699.3z"></path> <path class="st0" d="M492.4,211c0-2.9-1.1-5.4-3-7.3c-1.9-1.9-4.5-3-7.3-3c-2.9,0-5.4,1.1-7.3,3c-1.8,1.9-3,4.5-3,7.3 c0,2.9,1.1,5.4,3,7.3c1.8,1.8,4.4,3,7.3,3c2.9,0,5.4-1.1,7.3-3C491.2,216.4,492.4,213.8,492.4,211z"></path> <path class="st0" d="M676.6,739.3c-12.1,0.3-24.3,0.7-36.4,0.9c-0.2-9.7-0.3-14.6-0.6-24.4c10.2-0.2,20.4-0.5,30.7-0.8 c-0.1-3.7-0.2-5.5-0.3-9.1c-1.1-1.2-1.7-1.8-2.9-3c-11,0.5-22.2,0.7-33.3,1c0.4,16.2,0.7,32.5,1.1,48.7c14-0.3,28-0.7,42.1-1.1 c1.1-1.3,1.6-1.9,2.7-3.1c-0.1-2.4-0.1-3.7-0.2-6.1C678.3,741.1,677.8,740.5,676.6,739.3z"></path> <path class="st0" d="M411.2,341.3c-2.9,0-5.4,1.1-7.3,3c-1.8,1.9-3,4.5-3,7.3c0,2.9,1.2,5.5,3,7.3c1.9,1.9,4.4,3,7.3,3 c2.9,0,5.4-1.1,7.3-3c1.9-1.9,3-4.4,3-7.3c0-2.9-1.1-5.4-3-7.3C416.6,342.4,414,341.3,411.2,341.3z"></path> <path class="st0" d="M601.4,250.6l0.2,0.2c1.8,1.7,4.3,2.8,7,2.8c2.9,0,5.4-1.1,7.3-3c1.9-1.9,3-4.5,3-7.3c0-2.9-1.2-5.4-3-7.3 c-1.9-1.9-4.5-3-7.3-3c-2.9,0-5.4,1.1-7.3,3c-1.8,1.8-3,4.4-2.9,7.3c0,2.8,1.1,5.3,2.8,7.1L601.4,250.6z"></path> <path class="st0" d="M314.9,260.3c-2.9,0-5.4,1.1-7.3,3c-1.8,1.9-3,4.5-3,7.3c0,2.9,1.2,5.5,3,7.3c1.9,1.9,4.4,3,7.3,3 c2.9,0,5.4-1.1,7.3-3c1.8-1.8,3-4.4,3-7.3c0-2.9-1.1-5.4-3-7.3C320.3,261.4,317.7,260.3,314.9,260.3z"></path> <path class="st0" d="M675.1,310.3l0.2,0.2c1.8,1.7,4.3,2.8,7,2.8c2.9,0,5.4-1.1,7.3-3c1.8-1.9,3-4.5,3-7.3c0-2.9-1.2-5.4-3-7.3 c-1.9-1.9-4.5-3-7.3-3c-2.9,0-5.4,1.1-7.3,3c-1.9,1.8-3,4.4-2.9,7.3c0,2.8,1.1,5.3,2.8,7.1L675.1,310.3z"></path> <path class="st0" d="M656.3,421c2.9,0,5.4-1.1,7.3-3c1.8-1.9,3-4.5,3-7.3c0-2.9-1.2-5.4-3-7.3c-1.9-1.9-4.4-3-7.3-3 c-2.9,0-5.4,1.1-7.3,3c-1.8,1.9-3,4.5-3,7.3c0,2.9,1.2,5.5,3,7.3C650.9,419.9,653.4,421,656.3,421z"></path> <path class="st0" d="M248.6,341.3c-2.9,0-5.4,1.1-7.3,3c-1.9,1.9-3,4.5-3,7.3c0,2.9,1.2,5.5,3,7.3c1.9,1.9,4.4,3,7.3,3 c2.9,0,5.4-1.1,7.3-3c1.9-1.9,3-4.4,3-7.3c0-2.9-1.1-5.4-3-7.3C254,342.4,251.4,341.3,248.6,341.3z"></path> <path class="st0" d="M332,509.5c-2.9,0-5.5,1.2-7.3,3c-1.9,1.9-3,4.4-3,7.3c0,2.9,1.1,5.4,3,7.3c1.9,1.8,4.5,3,7.3,3 c2.9,0,5.4-1.1,7.3-3c1.8-1.8,3-4.4,3-7.3c0-2.9-1.1-5.4-3-7.3C337.4,510.7,334.8,509.5,332,509.5z"></path> <path class="st0" d="M715.4,482.1c2.9,0,5.4-1.1,7.3-3c1.9-1.9,3-4.5,3-7.3c0-2.9-1.1-5.4-3-7.3c-1.9-1.8-4.5-3-7.3-3 c-2.9,0-5.4,1.1-7.3,3c-1.8,1.9-2.9,4.5-3,7.3c0,2.9,1.1,5.4,3,7.3C710,480.9,712.6,482.1,715.4,482.1z"></path> <path class="st0" d="M0,0v1000h1000V0H0z M448.2,669.3c0,0.1,0,0.3,0,0.5c0,3.3-2.7,5.9-5.9,5.9l-337.9-11.8h332V478h-52.8 l-31.3,31.3l0.1,0.1l0.1,0.2v0.1v0.1l0.1,0.1l0.1,0.2v0.1v0.1l0.1,0.2l0.1,0.2v0.1v0.1l0.1,0.2l0.1,0.1v0.1v0.1l0.1,0.2l0.1,0.1 l0.1,0.1l0.1,0.2v0.1l0.1,0.1l0.1,0.2v0.1v0.1l0.1,0.1l0.1,0.2v0.1v0.1l0.1,0.2l0.1,0.2v0.1v0.1l0.1,0.2v0.2v0.1v0.1v0.2v0.1v0.1 v0.1v0.2v0.1v0.1v0.2v0.1v0.1v0.1v0.2v0.1v0.1v0.2v0.2v0.1v0.1v0.2v0.2v0.1v0.1v0.2v0.2v0.1v0.1v0.2v0.2v0.1v0.1v0.2v0.1v0.1v0.2 v0.1v0.1v0.2v0.2v0.1v0.1v0.2v0.2v0.1v0.1v0.2c0,6.1-2.5,11.6-6.5,15.6s-9.5,6.5-15.6,6.5c-6.1,0-11.6-2.5-15.6-6.5 s-6.5-9.5-6.5-15.6s2.5-11.6,6.5-15.6c4-3.9,9.5-6.4,15.5-6.4h0.2h0.2h0.1h0.1h0.2h0.2h0.1h0.1h0.2h0.1h0.1h0.2h0.1h0.1h0.2h0.2 h0.1h0.1h0.2h0.2h0.1h0.1h0.2h0.2h0.1h0.1h0.2h0.2h0.1h0.1h0.2h0.1h0.1h0.2h0.1h0.1h0.2h0.1h0.1h0.1h0.2h0.1h0.1h0.2l0.2,0.1h0.1 h0.1l0.2,0.1l0.2,0.1h0.1h0.1l0.2,0.1l0.1,0.1h0.1h0.1l0.2,0.1l0.1,0.1h0.1l0.2,0.1l0.1,0.1l0.1,0.1l0.2,0.1h0.1h0.1l0.1,0.1 l0.2,0.1h0.1h0.1l0.2,0.1l0.2,0.1h0.1h0.1l0.2,0.1l0.1,0.1h0.1h0.1l0.2,0.1l0.1,0.1l23-23h-96c-1.1,3.7-3.1,7-5.7,9.7 c-4,4-9.5,6.5-15.6,6.5c-6.1,0-11.6-2.5-15.6-6.5s-6.5-9.5-6.5-15.6c0-6.1,2.5-11.6,6.5-15.6c4-3.9,9.5-6.4,15.5-6.4 c6.1,0,11.6,2.5,15.6,6.5c2.7,2.7,4.7,6,5.7,9.7h72.4l-25.8-25.5c-2.3-2.3-2.3-6,0-8.3s6-2.3,8.3,0l34.2,33.8h76.3v-26.8 l-38.7-38.7h-105c-1.7,0-3.2-0.7-4.3-1.8l-27.8-27.8c-3.2,1.9-7,2.9-10.9,2.9c-6.1,0-11.6-2.5-15.6-6.5c-3.9-4-6.4-9.5-6.4-15.5 c0-6.1,2.5-11.6,6.5-15.6s9.5-6.5,15.6-6.5c6.1,0,11.6,2.5,15.6,6.5s6.5,9.5,6.5,15.6c0,4-1.1,7.7-2.9,10.9l26.2,26.2h54 l-10.6-10.6c-2.3-2.3-2.3-6,0-8.3s6-2.3,8.3,0l18.9,18.9h34.3c1.6,0,3.1,0.6,4.2,1.7l42.1,42.1c1,1,1.7,2.5,1.7,4.1v34.6 M191.7,752.9c-7.1,7-10.6,10.5-17.7,17.4c-18.7-1-37.4-2-56.1-3.1c-6.3-7.7-9.4-11.6-15.7-19.3c1.4-20.4,2.6-40.6,3.9-60.9 c7.1-6.9,10.6-10.3,17.7-17.2c18.4,1.1,36.8,2.1,55.2,3.1c6.3,7.6,9.4,11.5,15.7,19.1C193.7,712.3,192.7,732.6,191.7,752.9z M299,720.6c-3,3-4.5,4.4-7.5,7.4c2.8,3.1,4.2,4.7,7,7.9c-0.4,13.2-0.8,26.4-1.3,39.6c-9.4-0.3-14.1-0.5-23.5-0.8 c0.4-11.2,0.8-22.3,1.2-33.5c-1-1.4-1.6-2-2.7-3.3c-12.6-0.5-25.3-0.9-37.9-1.5c0.4-9.7,0.6-14.6,1-24.4c12.6,0.5,25.2,1,37.8,1.5 c1.2-1.2,1.8-1.8,3-2.9c0.1-2.4,0.1-3.7,0.2-6.1c-1.1-1.3-1.7-1.9-2.8-3.1c-14.5-0.5-29-1.1-43.5-1.7c-1,24.4-2.1,48.7-3.1,73.1 c-9.4-0.4-14.1-0.6-23.5-1.1c1.5-32.5,3-64.9,4.5-97.4c25,1.1,50.1,2.2,75.1,3c6.7,7.5,10,11.3,16.8,18.9 C299.5,705.9,299.3,710.8,299,720.6z M340.1,776.5c-11-0.2-16.4-0.4-27.3-0.7c1-32.5,1.9-65,2.9-97.5c10.7,0.3,16.1,0.5,26.8,0.7 C341.7,711.5,340.9,744,340.1,776.5z M452.5,705.4c-22.2-0.2-44.5-0.5-66.7-0.8c-1.2,1.2-1.8,1.8-3,3c-0.3,14.2-0.5,28.4-0.8,42.7 c1.1,1.2,1.7,1.9,2.9,3.1c14.6,0.2,29.2,0.5,43.9,0.6c0.1-4.9,0.1-7.3,0.1-12.2c-9.3-0.1-14-0.2-23.4-0.3 c0.1-9.8,0.2-14.6,0.4-24.4c15.5,0.2,31,0.4,46.5,0.5c-0.2,20.1-0.3,40.4-0.4,60.8c-25.4-0.2-50.9-0.5-76.3-1 c-6.9-7.4-10.3-11.2-17.2-18.6c0.4-20.3,0.9-40.6,1.3-60.9c7.1-7.2,10.7-10.7,17.7-17.9c25,0.5,50.1,0.8,75.2,1 C452.6,690.8,452.6,695.6,452.5,705.4z M493.6,778.5c-10.4,0-15.7,0-26.2-0.1c0.2-32.5,0.3-65,0.5-97.5c10.3,0,15.5,0.1,25.8,0.1 C493.7,713.5,493.7,746,493.6,778.5z M497.6,668.7c-4,4-9.5,6.5-15.6,6.5c-6.1,0-11.6-2.5-15.6-6.5s-6.5-9.5-6.5-15.6 s2.5-11.6,6.5-15.6c2.6-2.6,5.9-4.6,9.6-5.6V424.6l-54-54c-3.2,1.9-7,2.9-10.9,2.9c-6.1,0-11.6-2.5-15.6-6.5 c-3.9-4-6.4-9.5-6.4-15.5c0-6.1,2.5-11.6,6.5-15.6s9.5-6.5,15.6-6.5c6.1,0,11.6,2.5,15.6,6.5s6.5,9.5,6.5,15.6 c0,4-1.1,7.7-2.9,10.9l45.7,45.7v-22v-28.2L427,308.8h-79.9c-1.5,0-3.1-0.6-4.2-1.7l-17.3-17.3c-3.2,1.9-7,2.9-10.9,2.9 c-6.1,0-11.6-2.5-15.6-6.5c-3.9-4-6.4-9.5-6.4-15.5c0-6.1,2.5-11.6,6.5-15.6s9.5-6.5,15.6-6.5c6.1,0,11.6,2.5,15.6,6.5 s6.5,9.5,6.5,15.6c0,4-1.1,7.7-2.9,10.9l15.6,15.6h35.3l-10.6-10.6c-2.3-2.3-2.3-6,0-8.3s6-2.3,8.3,0l18.9,18.9h27.9 c1.7,0,3.2,0.7,4.3,1.8l42.4,42.4v-53.8l-63.4-64.4c-2.2-2.3-2.2-6,0.1-8.3c2.3-2.2,6-2.2,8.3,0.1l55,55.8v-38.7 c-3.7-1.1-7-3-9.7-5.7c-3.9-4-6.4-9.5-6.4-15.5c0-6.1,2.5-11.6,6.5-15.6s9.5-6.5,15.6-6.5c6.1,0,11.6,2.5,15.6,6.5 c3.9,4,6.4,9.5,6.4,15.6c0,6.1-2.4,11.6-6.4,15.6c-2.7,2.7-6,4.7-9.7,5.7v68.6l34.2-34.2c1.1-1.1,2.6-1.8,4.3-1.8h52.3l10.7-10.7 c-1.9-3.3-2.9-7-2.9-10.9c0-6.1,2.5-11.6,6.5-15.6s9.5-6.5,15.6-6.5s11.6,2.5,15.6,6.5c3.9,4,6.4,9.5,6.4,15.6 c0,6.1-2.4,11.6-6.4,15.6s-9.5,6.5-15.6,6.5c-4,0-7.7-1.1-10.9-2.9l-12.4,12.4c-1.2,1.1-2.7,1.7-4.2,1.7H568l18.8,19 c2.3,2.3,2.3,6,0,8.3s-6,2.3-8.3,0l-27.2-27.2h-22.5l-40.9,40.9V372l25.9-26c1.2-1.1,2.7-1.7,4.2-1.7h114.5l30.5-30.5 c-1.9-3.3-2.9-7-2.9-10.9c0-6.1,2.5-11.6,6.5-15.6s9.5-6.5,15.6-6.5s11.6,2.5,15.6,6.5s6.5,9.5,6.5,15.6c0,6.1-2.5,11.6-6.5,15.6 s-9.5,6.5-15.6,6.5c-3.9,0-7.6-1.1-10.8-2.9l-22.2,22.2h65.5c3.3,0,5.9,2.7,5.9,5.9c0,3.3-2.7,5.9-5.9,5.9H635h-47.6l15.8,16 c2.2,2.3,2.2,6-0.1,8.3c-2.3,2.2-6,2.2-8.3-0.1l-23.9-24.2h-50.5l-32.5,32.5v243.5c3.7,1.1,7.1,3,9.7,5.4c3.9,4,6.4,9.5,6.4,15.6 S501.6,664.7,497.6,668.7z M586,777.9c-18.3-18.5-36.5-37.2-54.6-55.9c0.1,18.8,0.2,37.6,0.3,56.4c-9.4,0.1-14.1,0.1-23.5,0.1 c-0.1-32.5-0.1-65-0.2-97.5c6.4,0,9.5,0,15.9,0c18,18.7,36,37.4,54.2,55.9c-0.2-18.8-0.5-37.6-0.7-56.4c9.2-0.1,13.9-0.2,23.1-0.3 c0.5,32.5,1.1,65,1.6,97.5C595.6,777.8,592.4,777.9,586,777.9z M686.1,775.8c-24.4,0.7-48.8,1.3-73.2,1.8 c-0.6-32.5-1.2-65-1.8-97.5c21.3-0.4,42.5-0.9,63.8-1.5c6.9,7.1,10.3,10.7,17.2,17.8c0.3,10.8,0.5,16.3,0.8,27.3 c3.5,3.6,5.2,5.3,8.7,8.9c0.3,9.7,0.5,14.6,0.8,24.4C695.9,764.5,692.6,768.3,686.1,775.8z M784,772c-18.1,0.8-36.3,1.6-54.4,2.2 c-6.8-7.1-10.2-10.6-17-17.7c-0.7-20.3-1.4-40.6-2.1-60.9c6.2-7.5,9.3-11.3,15.5-18.8c17.9-0.7,35.7-1.4,53.6-2.2 c6.8,7,10.2,10.5,17,17.5c1,20.3,2,40.6,2.9,60.9C793.3,760.6,790.2,764.4,784,772z M862.3,768c-8.3,0.5-12.5,0.7-20.8,1.2 c-1.3-24.3-2.7-48.7-4-73c-10.3,0.6-20.6,1.1-30.9,1.6c-0.5-9.7-0.7-14.6-1.2-24.4c27.4-1.4,54.7-2.9,82.1-4.6 c0.6,9.7,0.9,14.6,1.5,24.3c-10.3,0.7-20.6,1.3-30.9,1.9C859.5,719.3,860.9,743.6,862.3,768z M522.8,675.1c-3.3,0-5.9-2.7-5.9-5.9 V471.5c0-0.2,0-0.4,0-0.6v-34.6c0-1.6,0.6-3,1.7-4.1l25.9-25.9c1.2-1.1,2.7-1.7,4.2-1.7h86.2c1.1-3.7,3-7,5.7-9.7 c4-4,9.5-6.5,15.6-6.5s11.6,2.5,15.6,6.5s6.5,9.5,6.5,15.6c0,6.1-2.5,11.6-6.5,15.6s-9.5,6.5-15.6,6.5s-11.6-2.5-15.6-6.5 c-2.6-2.6-4.6-5.9-5.6-9.6h-83.7L528.8,439v26.8h165.3c1.1-3.7,3.1-7,5.7-9.7c4-3.9,9.5-6.4,15.5-6.4c6.1,0,11.6,2.5,15.6,6.5 s6.5,9.5,6.5,15.6c0,6.1-2.5,11.6-6.5,15.6s-9.5,6.5-15.6,6.5s-11.6-2.5-15.6-6.5c-2.7-2.7-4.7-6-5.7-9.7h-95.9l23,23 c3.3-1.9,7-2.9,10.9-2.9c6.1,0,11.6,2.5,15.6,6.5s6.5,9.5,6.5,15.6s-2.5,11.6-6.5,15.6s-9.5,6.5-15.6,6.5s-11.6-2.5-15.6-6.5 c-3.9-4-6.4-9.5-6.4-15.6c0-4,1.1-7.7,2.9-10.9l-31.3-31.3h-52.8v185.6H892L522.8,675.1z"></path> <path class="st0" d="M632.1,530.2c2.9,0,5.4-1.1,7.3-3c1.9-1.9,3-4.5,3-7.3c0-2.9-1.1-5.4-3-7.3c-1.9-1.8-4.5-3-7.3-3 c-2.9,0-5.4,1.1-7.3,3c-1.9,1.8-3,4.4-3,7.3s1.1,5.4,3,7.3C626.7,529,629.3,530.2,632.1,530.2z"></path> <path class="st0" d="M248.6,461.5c-2.9,0-5.5,1.2-7.3,3c-1.9,1.9-3,4.4-3,7.3c0,2.9,1.1,5.4,3,7.3c1.9,1.8,4.5,3,7.3,3 c2.9,0,5.4-1.1,7.3-3c1.9-1.9,3-4.4,3-7.3c0-2.9-1.1-5.4-3-7.3C254,462.7,251.4,461.5,248.6,461.5z"></path> </g> </g> </svg> 