<?xml version="1.0" encoding="UTF-8"?> <svg xmlns="http://www.w3.org/2000/svg" width="144" height="126" viewBox="0 0 144 126" fill="none"> <g clip-path="url(#clip0_64_331)"> <path d="M44.7883 65.3528L67.0593 79.1587C68.5568 80.0875 70.2652 80.5768 72.0029 80.5768C73.7407 80.5768 75.4491 80.0875 76.9465 79.1587L99.2176 65.3528C101.996 63.6299 103.654 60.6502 103.654 57.3833V28.7663C103.654 25.4965 101.996 22.5197 99.2176 20.7969L76.9465 6.99088C75.4227 6.04451 73.7143 5.57278 72.0029 5.57278C70.2916 5.57278 68.5861 6.04451 67.0593 6.99088L44.7883 20.7969C42.0103 22.5197 40.3517 25.4994 40.3517 28.7663V57.3833C40.3517 60.6531 42.0103 63.6299 44.7883 65.3528ZM43.2821 28.7663C43.2821 26.5191 44.422 24.471 46.3326 23.2873L68.6037 9.48135C69.6322 8.84555 70.8073 8.5086 72.0029 8.5086C73.1985 8.5086 74.3736 8.84555 75.4022 9.48135L97.6733 23.2873C99.5839 24.471 100.724 26.5191 100.724 28.7663V57.3833C100.724 59.6305 99.5839 61.6786 97.6733 62.8623L75.4022 76.6683C74.3531 77.3187 73.178 77.6439 72.0029 77.6439C70.8278 77.6439 69.6528 77.3187 68.6037 76.6683L46.3326 62.8623C44.422 61.6786 43.2821 59.6305 43.2821 57.3833V28.7663Z" fill="white"></path> <path d="M72 58.6139C80.6154 58.6139 87.622 51.6054 87.622 42.9942C87.622 34.3831 80.6125 27.3746 72 27.3746C63.3875 27.3746 56.378 34.3831 56.378 42.9942C56.378 51.6054 63.3875 58.6139 72 58.6139ZM72 30.3046C78.9978 30.3046 84.6916 35.9975 84.6916 42.9942C84.6916 49.991 78.9978 55.6839 72 55.6839C65.0022 55.6839 59.3084 49.991 59.3084 42.9942C59.3084 35.9975 65.0022 30.3046 72 30.3046Z" fill="white"></path> <path d="M72 96.0705C74.9773 96.0705 77.7934 95.7101 79.9326 95.0567C81.8227 94.4795 84.0791 93.369 84.0791 91.362C84.0791 90.5533 83.4227 89.897 82.6139 89.897C81.9311 89.897 81.3451 90.36 81.1868 91.0251L81.1223 91.3034L80.885 91.4646C80.63 91.6374 78.2242 93.1434 72 93.1434C65.7758 93.1434 63.367 91.6345 63.115 91.4646L62.8777 91.3034L62.8132 91.0251C62.6579 90.36 62.0718 89.897 61.3861 89.897C60.5773 89.897 59.9209 90.5533 59.9209 91.362C59.9209 93.369 62.1744 94.4795 64.0674 95.0567C66.2066 95.7101 69.0256 96.0705 72 96.0705Z" fill="white"></path> <path d="M134.113 83.4101C128.111 79.4312 119.531 76.0647 109.295 73.6797C108.51 73.4951 107.719 73.9874 107.537 74.7726C107.449 75.1535 107.514 75.5461 107.719 75.8772C107.927 76.2083 108.249 76.4427 108.63 76.5306C118.526 78.8394 126.778 82.0623 132.492 85.8508C136.404 88.4438 141.07 92.6307 141.07 97.8402C141.07 104.225 133.884 110.603 121.357 115.344C108.196 120.325 90.6667 123.067 72 123.067C53.3333 123.067 35.8037 120.325 22.6432 115.344C10.1157 110.603 2.9304 104.222 2.9304 97.8402C2.9304 92.6307 7.59561 88.4438 11.5077 85.8508C17.222 82.0623 25.474 78.8394 35.37 76.5306C35.7509 76.4427 36.0762 76.2083 36.2813 75.8772C36.4894 75.5461 36.5538 75.1535 36.463 74.7726C36.3751 74.3917 36.1407 74.0665 35.8095 73.8614C35.5751 73.7149 35.3084 73.6387 35.0388 73.6387C34.9275 73.6387 34.8161 73.6504 34.7018 73.6768C24.4689 76.0647 15.8857 79.4283 9.88425 83.4072C3.41978 87.6996 0 92.6893 0 97.8431C0 105.625 7.6718 112.815 21.6059 118.089C35.0916 123.193 52.9875 126.003 72 126.003C91.0125 126.003 108.911 123.193 122.394 118.089C136.325 112.815 144 105.628 144 97.8431C144 92.6893 140.58 87.6996 134.113 83.4101Z" fill="white"></path> <path d="M46.6725 78.8071C46.4293 78.646 46.1509 78.561 45.8637 78.561C45.767 78.561 45.6674 78.5698 45.5707 78.5903C28.5538 82.0125 18.7956 88.1185 18.7956 95.3409C18.7956 99.1704 21.5971 104.699 34.9392 109.273C44.8586 112.675 58.022 114.55 71.9971 114.55C85.9722 114.55 99.1355 112.675 109.055 109.273C122.397 104.696 125.199 99.1704 125.199 95.3409C125.199 88.1185 115.44 82.0125 98.4234 78.5903C98.0396 78.5141 97.6498 78.5903 97.3245 78.8071C96.9993 79.024 96.7766 79.355 96.7004 79.7389C96.5421 80.53 97.055 81.3035 97.8491 81.4646C112.686 84.4502 122.271 89.897 122.271 95.3438C122.271 103.205 102.072 111.623 72 111.623C41.9282 111.623 21.7289 103.205 21.7289 95.3438C21.7289 89.897 31.3143 84.4502 46.1509 81.4646C46.9421 81.3064 47.4579 80.53 47.2996 79.7389C47.2234 79.355 47.0007 79.024 46.6755 78.8071H46.6725Z" fill="white"></path> <path d="M55.3524 85.6457C55.7363 85.5695 56.0674 85.3468 56.2842 85.0216C56.5011 84.6963 56.5773 84.3037 56.5011 83.9228C56.4249 83.539 56.2022 83.2079 55.8769 82.9911C55.6337 82.83 55.3553 82.745 55.0681 82.745C54.9714 82.745 54.8747 82.7538 54.7751 82.7743C44.0264 84.9337 38.107 88.6577 38.107 93.2635C38.107 95.754 39.9297 99.3198 48.6125 102.162C54.8806 104.213 63.1853 105.344 71.9971 105.344C80.8088 105.344 89.1135 104.213 95.3817 102.162C104.064 99.3198 105.887 95.754 105.887 93.2635C105.887 88.6577 99.9678 84.9337 89.222 82.7743C88.8381 82.6981 88.4454 82.7743 88.1201 82.9911C87.7949 83.2079 87.5722 83.539 87.496 83.9228C87.4198 84.3067 87.496 84.6964 87.7128 85.0245C87.9297 85.3497 88.2608 85.5724 88.6447 85.6486C98.5319 87.6351 102.957 90.9049 102.957 93.2665C102.957 95.2764 99.9033 97.5208 94.7897 99.27C90.5963 100.706 83.2352 102.417 71.9971 102.417C52.0615 102.417 41.0374 97.008 41.0374 93.2665C41.0374 90.9079 45.4623 87.6351 55.3494 85.6486L55.3524 85.6457Z" fill="white"></path> <path d="M130.13 47.5708C130.939 47.5708 131.596 46.9145 131.596 46.1059V45.3734C131.596 44.5647 130.939 43.9084 130.13 43.9084C129.322 43.9084 128.665 44.5647 128.665 45.3734V46.1059C128.665 46.9145 129.322 47.5708 130.13 47.5708Z" fill="white"></path> <path d="M130.13 59.6276C130.939 59.6276 131.596 58.9713 131.596 58.1626V57.4301C131.596 56.6215 130.939 55.9652 130.13 55.9652C129.322 55.9652 128.665 56.6215 128.665 57.4301V58.1626C128.665 58.9713 129.322 59.6276 130.13 59.6276Z" fill="white"></path> <path d="M123.736 53.2344H124.469C125.278 53.2344 125.934 52.5781 125.934 51.7695C125.934 50.9608 125.278 50.3045 124.469 50.3045H123.736C122.927 50.3045 122.271 50.9608 122.271 51.7695C122.271 52.5781 122.927 53.2344 123.736 53.2344Z" fill="white"></path> <path d="M135.792 53.2344H136.525C137.333 53.2344 137.99 52.5781 137.99 51.7695C137.99 50.9608 137.333 50.3045 136.525 50.3045H135.792C134.983 50.3045 134.327 50.9608 134.327 51.7695C134.327 52.5781 134.983 53.2344 135.792 53.2344Z" fill="white"></path> <path d="M21.4183 28.1071C22.2271 28.1071 22.8835 27.4508 22.8835 26.6421V25.9096C22.8835 25.101 22.2271 24.4447 21.4183 24.4447C20.6095 24.4447 19.9531 25.101 19.9531 25.9096V26.6421C19.9531 27.4508 20.6095 28.1071 21.4183 28.1071Z" fill="white"></path> <path d="M21.4183 40.161C22.2271 40.161 22.8835 39.5047 22.8835 38.696V37.9635C22.8835 37.1548 22.2271 36.4985 21.4183 36.4985C20.6095 36.4985 19.9531 37.1548 19.9531 37.9635V38.696C19.9531 39.5047 20.6095 40.161 21.4183 40.161Z" fill="white"></path> <path d="M15.0242 33.7678H15.7568C16.5656 33.7678 17.222 33.1115 17.222 32.3028C17.222 31.4941 16.5656 30.8378 15.7568 30.8378H15.0242C14.2154 30.8378 13.559 31.4941 13.559 32.3028C13.559 33.1115 14.2154 33.7678 15.0242 33.7678Z" fill="white"></path> <path d="M27.0828 33.7678H27.8154C28.6242 33.7678 29.2806 33.1115 29.2806 32.3028C29.2806 31.4941 28.6242 30.8378 27.8154 30.8378H27.0828C26.274 30.8378 25.6176 31.4941 25.6176 32.3028C25.6176 33.1115 26.274 33.7678 27.0828 33.7678Z" fill="white"></path> <path d="M110.661 3.66245C111.47 3.66245 112.126 3.00614 112.126 2.19747V1.46498C112.126 0.656311 111.47 0 110.661 0C109.852 0 109.196 0.656311 109.196 1.46498V2.19747C109.196 3.00614 109.852 3.66245 110.661 3.66245Z" fill="white"></path> <path d="M110.661 15.7163C111.47 15.7163 112.126 15.06 112.126 14.2513V13.5188C112.126 12.7102 111.47 12.0539 110.661 12.0539C109.852 12.0539 109.196 12.7102 109.196 13.5188V14.2513C109.196 15.06 109.852 15.7163 110.661 15.7163Z" fill="white"></path> <path d="M104.267 9.32313H104.999C105.808 9.32313 106.464 8.66682 106.464 7.85815C106.464 7.04948 105.808 6.39317 104.999 6.39317H104.267C103.458 6.39317 102.801 7.04948 102.801 7.85815C102.801 8.66682 103.458 9.32313 104.267 9.32313Z" fill="white"></path> <path d="M116.325 9.32313H117.058C117.867 9.32313 118.523 8.66682 118.523 7.85815C118.523 7.04948 117.867 6.39317 117.058 6.39317H116.325C115.516 6.39317 114.86 7.04948 114.86 7.85815C114.86 8.66682 115.516 9.32313 116.325 9.32313Z" fill="white"></path> </g> <defs> <clipPath id="clip0_64_331"> <rect width="144" height="126" fill="white"></rect> </clipPath> </defs> </svg> 