<?xml version="1.0" encoding="UTF-8"?> <svg xmlns="http://www.w3.org/2000/svg" width="117" height="111" viewBox="0 0 117 111" fill="none"> <g clip-path="url(#clip0_64_353)"> <path d="M105.967 59.7794H84.1596V11.1118C84.1596 4.98571 79.2094 0 73.1268 0H11.0328C4.95028 0 0 4.98325 0 11.1118V93.8431C0 103.304 7.64092 111 17.035 111H99.9626C109.357 111 116.998 103.304 116.998 93.8431V70.8912C116.998 64.7651 112.047 59.7794 105.965 59.7794H105.967ZM17.035 108.548C8.98502 108.548 2.43496 101.951 2.43496 93.8431V11.1118C2.43496 6.33697 6.29195 2.45239 11.0328 2.45239H73.1268C77.8677 2.45239 81.7247 6.33697 81.7247 11.1118V93.8431C81.7247 99.2065 84.1548 104.165 88.394 107.449L89.8136 108.548H17.035ZM114.563 93.8431C114.563 101.951 108.013 108.548 99.9626 108.548H98.7572C90.7073 108.548 84.1572 101.951 84.1572 93.8431V62.2318H105.965C110.706 62.2318 114.563 66.1164 114.563 70.8912V93.8431Z" fill="white"></path> <path d="M64.977 67.5069H18.3938C17.7217 67.5069 17.1763 68.0562 17.1763 68.7331C17.1763 69.41 17.7217 69.9593 18.3938 69.9593H64.977C65.6491 69.9593 66.1945 69.41 66.1945 68.7331C66.1945 68.0562 65.6491 67.5069 64.977 67.5069Z" fill="white"></path> <path d="M64.977 79.992H18.3938C17.7217 79.992 17.1763 80.5413 17.1763 81.2182C17.1763 81.8951 17.7217 82.4444 18.3938 82.4444H64.977C65.6491 82.4444 66.1945 81.8951 66.1945 81.2182C66.1945 80.5413 65.6491 79.992 64.977 79.992Z" fill="white"></path> <path d="M42.2004 92.4771H18.3938C17.7217 92.4771 17.1763 93.0264 17.1763 93.7033C17.1763 94.3802 17.7217 94.9295 18.3938 94.9295H42.2004C42.8724 94.9295 43.4179 94.3802 43.4179 93.7033C43.4179 93.0264 42.8724 92.4771 42.2004 92.4771Z" fill="white"></path> <path d="M29.2634 50.0704C29.4947 50.3328 29.8259 50.4824 30.1741 50.4824C30.4711 50.4824 30.7584 50.3721 30.9825 50.1734C31.4841 49.7246 31.5303 48.9472 31.0847 48.442L19.4286 35.2359L31.0823 22.1034C31.5303 21.5982 31.4865 20.8232 30.9849 20.372C30.7536 20.1635 30.4638 20.0605 30.1741 20.0605C29.838 20.0605 29.5044 20.1979 29.2658 20.4701L16.8889 34.4193C16.4774 34.8828 16.4749 35.5842 16.8889 36.0501L29.2658 50.0729L29.2634 50.0704Z" fill="white"></path> <path d="M54.1049 20.4676C53.8638 20.1979 53.5303 20.0581 53.1967 20.0581C52.9069 20.0581 52.6171 20.1611 52.3858 20.3695C51.8867 20.8208 51.8428 21.5957 52.2884 22.1009L63.9422 35.2335L52.286 48.4396C51.8404 48.9448 51.8866 49.7222 52.3883 50.171C52.6123 50.3696 52.8972 50.48 53.1967 50.48C53.5449 50.48 53.876 50.3304 54.1073 50.068L66.4843 36.0452C66.8958 35.5792 66.8933 34.8779 66.4843 34.4144L54.1073 20.4652L54.1049 20.4676Z" fill="white"></path> <path d="M35.6259 50.4015C35.7647 50.453 35.9084 50.48 36.0545 50.48C36.5585 50.48 37.0163 50.1612 37.194 49.6854L47.6644 21.7159C47.9006 21.0832 47.5816 20.3744 46.9534 20.1366C46.8121 20.0826 46.6685 20.0556 46.5224 20.0556C46.3519 20.0556 46.1815 20.0924 46.0208 20.166C45.7237 20.3009 45.4973 20.5437 45.3828 20.8502L34.9125 48.8222C34.798 49.1287 34.8078 49.4622 34.9417 49.759C35.0756 50.0557 35.3167 50.2862 35.621 50.4015H35.6259Z" fill="white"></path> </g> <defs> <clipPath id="clip0_64_353"> <rect width="117" height="111" fill="white"></rect> </clipPath> </defs> </svg> 