<?xml version="1.0" encoding="UTF-8"?> <svg xmlns="http://www.w3.org/2000/svg" width="1054" height="673" viewBox="0 0 1054 673" fill="none"> <g clip-path="url(#clip0_352_197)"> <path d="M-122 412.501C-122 412.501 -12.3833 459.643 81 412.501C194.231 355.339 165 299.501 274.5 299.501C395.5 299.501 466.15 338.209 540 279.001C598 232.5 540 97 657 97C796 97 705 462.5 837 462.501C917.211 462.501 825.582 188.306 1020.5 221.502C1135 241.002 1318.93 604.136 1459.46 576.312C1529.46 562.453 1595 479.288 1595 479.288" stroke="#DDDDDD" stroke-width="5"></path> <path d="M-150 386.303C-150 386.303 -103.753 290.102 -57.5 299.5C64.2482 324.239 20.2707 373.78 141 396C295 424.343 196.5 253 310 253C408 253 331.572 448.5 512 448.5C664 448.5 539.99 112 723.5 112C881.5 112 833 364.499 913 364.499C1017.42 364.499 915 171.499 1104 171.499C1297.26 171.499 1156 570.869 1282.5 565.949C1372.43 562.451 1328.91 297.054 1444 297.054C1522 297.054 1506.01 364.987 1551.5 364.987C1607 364.987 1619 297.054 1619 297.054" stroke="#5B00FF" stroke-width="5"></path> </g> <defs> <clipPath id="clip0_352_197"> <rect width="1053.39" height="673" fill="white"></rect> </clipPath> </defs> </svg> 